<svg xmlns="http://www.w3.org/2000/svg" viewBox="0 0 300 300"><path fill="#FFA85D" d="M196.3 226.806v25.4c0 6.6-5.4 12-12 12h-8.5v21.4c0 2.1-1.7 3.8-3.8 3.8h-8.5c-2.1 0-3.8-1.7-3.8-3.8v-21.4h-19.2v21.4c0 2.1-1.7 3.8-3.8 3.8h-8.5c-2.1 0-3.8-1.7-3.8-3.8v-21.4h-8.5c-6.6 0-12-5.4-12-12v-25.4h92.4zm31.8-77.5c-12 18.9-27.5 37.9-31.1 59.6h-94.1c-3.6-20.9-18.8-40.8-30.4-58.6-9.7-15-14.9-32.5-14.9-50.3 0-51 41.4-92.4 92.4-92.4h.3c49.3.3 89.7 39.2 92 88.4.9 18.7-4.1 37.3-14.2 53.3z"/><path fill="#FFF" d="M106.8 108.106c-3.7 0-7-2.7-7.7-6.5-1.4-8.4-.7-17 2.2-25l.1-.3c6-14.5 17.9-25.6 32.7-30.6 4.1-1.4 8.5.8 9.9 4.9 1.4 4.1-.8 8.5-4.9 9.9-10.5 3.5-18.9 11.4-23.2 21.6-1.9 5.4-2.4 11.3-1.4 16.9.7 4.3-2.1 8.3-6.4 9-.4.1-.8.1-1.3.1z"/></svg>